<svg xmlns="http://www.w3.org/2000/svg" viewBox="0 0 500 500" width="500" height="500">
	<style>
		tspan { white-space:pre }
		.shp0 { fill: #ffab00 } 
		.shp1 { fill: #ffc400 } 
		.shp2 { fill: #212121 } 
	</style>
	<g id="FriendlyCaptcha-Logo">
		<g id="Layer">
			<path id="Layer" fill-rule="evenodd" class="shp0" d="M463.78 73.22C416.89 26.34 353.3 0 287 0C149.02 0 37 112.02 37 250C37 387.98 149.02 500 287 500C353.3 500 416.89 473.66 463.78 426.78L410.74 373.74C377.92 406.56 333.41 425 287 425C190.41 425 112 346.58 112 250C112 153.42 190.41 75 287 75C333.41 75 377.92 93.44 410.74 126.26L463.78 73.22Z" />
			<path id="Layer" fill-rule="evenodd" class="shp1" d="M110.22 426.78C157.11 473.66 220.7 500 287 500C353.3 500 416.89 473.66 463.78 426.78L410.74 373.74C377.92 406.56 333.41 425 287 425C240.59 425 196.07 406.56 163.26 373.74L110.22 426.78L110.22 426.78Z" />
			<path id="Layer" class="shp0" d="M212 287.5C191.26 287.5 174.5 270.74 174.5 250C174.5 229.26 191.26 212.5 212 212.5C232.74 212.5 249.5 229.26 249.5 250C249.5 270.74 232.74 287.5 212 287.5Z" />
			<path id="Layer" class="shp0" d="M362 287.5C341.26 287.5 324.5 270.74 324.5 250C324.5 229.26 341.26 212.5 362 212.5C382.74 212.5 399.5 229.26 399.5 250C399.5 270.74 382.74 287.5 362 287.5Z" />
		</g>
		<path id="FriendlyCaptcha-Wordmark" class="shp2" d="M576.8 354.87L614.74 354.87L614.74 265.89L701.78 265.89L701.78 234.08L614.74 234.08L614.74 177.22L710.98 177.22L710.98 145.41L576.8 145.41L576.8 354.87Z" />
		<path id="Layer" class="shp2" d="M741.56 354.87L778.58 354.87L778.58 262.51C778.58 242.57 793.62 228.46 813.97 228.46C820.21 228.46 827.98 229.58 831.15 230.61L831.15 196.55C827.78 195.94 821.95 195.53 817.86 195.53C799.86 195.53 784.82 205.75 779.1 223.96L777.46 223.96L777.46 197.78L741.56 197.78L741.56 354.87Z" />
		<path id="Layer" class="shp2" d="M855.8 354.87L892.82 354.87L892.82 197.78L855.8 197.78L855.8 354.87ZM874.41 175.48C886.17 175.48 895.79 166.48 895.79 155.44C895.79 144.29 886.17 135.29 874.41 135.29C862.55 135.29 852.94 144.29 852.94 155.44C852.94 166.48 862.55 175.48 874.41 175.48Z" />
		<path id="Layer" fill-rule="evenodd" class="shp2" d="M1000.41 357.94C953.06 357.94 924.11 326.54 924.11 277.24C924.11 228.76 953.47 195.73 998.47 195.73C1037.13 195.73 1070.26 219.97 1070.26 275.09L1070.26 286.45L960.83 286.45C961.14 313.34 976.99 329.09 1000.92 329.09C1016.88 329.09 1029.15 322.14 1034.16 308.84L1068.73 312.73C1062.18 340.04 1037.02 357.94 1000.41 357.94ZM960.93 261.49L1034.77 261.49C1034.57 240.12 1020.25 224.57 998.98 224.57C976.89 224.57 962.06 241.45 960.93 261.49Z" />
		<path id="Layer" class="shp2" d="M1138.58 262.82C1138.58 240.12 1152.28 227.03 1171.82 227.03C1190.94 227.03 1202.4 239.61 1202.4 260.57L1202.4 354.87L1239.42 354.87L1239.42 254.84C1239.52 217.21 1218.05 195.73 1185.63 195.73C1162.1 195.73 1145.94 206.98 1138.78 224.47L1136.94 224.47L1136.94 197.78L1101.56 197.78L1101.56 354.87L1138.58 354.87L1138.58 262.82Z" />
		<path id="Layer" fill-rule="evenodd" class="shp2" d="M1335.46 357.63C1298.44 357.63 1270.72 328.28 1270.72 276.53C1270.72 224.16 1299.26 195.73 1335.56 195.73C1363.28 195.73 1374.84 212.4 1380.46 223.75L1381.99 223.75L1381.99 145.41L1419.12 145.41L1419.12 354.87L1382.71 354.87L1382.71 330.12L1380.46 330.12C1374.63 341.57 1362.46 357.63 1335.46 357.63ZM1382.71 276.32C1382.71 245.84 1369.62 226.11 1345.79 226.11C1321.14 226.11 1308.46 247.07 1308.46 276.32C1308.46 305.78 1321.35 327.25 1345.79 327.25C1369.41 327.25 1382.71 306.8 1382.71 276.32Z" />
		<path id="Layer" class="shp2" d="M1458.7 145.41L1495.72 145.41L1495.72 354.87L1458.7 354.87L1458.7 145.41Z" />
		<path id="Layer" class="shp2" d="M1556.78 413.78C1585.62 413.78 1602.29 398.95 1611.19 373.89L1674.09 197.78L1634.71 197.78L1598.4 316.41L1596.77 316.41L1560.56 197.78L1521.29 197.78L1578.26 358.14L1575.09 366.63C1568.23 384.53 1557.39 385.75 1541.23 381.05L1532.64 409.89C1537.65 411.94 1546.65 413.78 1556.78 413.78Z" />
		<path id="Layer" class="shp2" d="M1952.06 216.08C1945.62 169.55 1909.82 142.55 1863.39 142.55C1808.67 142.55 1767.46 182.44 1767.46 250.14C1767.46 317.74 1808.16 357.73 1863.39 357.73C1913.2 357.73 1946.23 325.51 1952.06 285.53L1913.81 285.32C1909 309.87 1888.96 323.67 1863.9 323.67C1829.95 323.67 1805.61 298.21 1805.61 250.14C1805.61 202.89 1829.74 176.61 1864 176.61C1889.47 176.61 1909.41 191.03 1913.81 216.08L1952.06 216.08L1952.06 216.08Z" />
		<path id="Layer" fill-rule="evenodd" class="shp2" d="M2030.51 358.04C2000.54 358.04 1977.94 341.67 1977.94 310.79C1977.94 275.4 2007.09 266.3 2037.57 263.03C2065.28 260.06 2076.43 259.55 2076.43 248.91L2076.43 248.3C2076.43 232.86 2067.02 224.06 2049.84 224.06C2031.74 224.06 2021.3 233.26 2017.62 244L1983.05 239.09C1991.24 210.46 2016.6 195.73 2049.63 195.73C2079.6 195.73 2113.45 208.21 2113.45 249.73L2113.45 354.87L2077.86 354.87L2077.86 333.29L2076.64 333.29C2069.89 346.48 2055.16 358.04 2030.51 358.04ZM2076.53 298.51L2076.53 280C2071.72 283.89 2052.29 286.34 2042.58 287.67C2026.01 290.03 2013.63 295.96 2013.63 310.17C2013.63 323.78 2024.68 330.83 2040.12 330.83C2062.42 330.83 2076.53 316 2076.53 298.51Z" />
		<path id="Layer" fill-rule="evenodd" class="shp2" d="M2150.78 413.78L2150.78 197.78L2187.19 197.78L2187.19 223.75L2189.34 223.75C2194.96 212.4 2206.52 195.73 2234.24 195.73C2270.54 195.73 2299.08 224.16 2299.08 276.53C2299.08 328.28 2271.36 357.63 2234.34 357.63C2207.34 357.63 2195.17 341.57 2189.34 330.12L2187.8 330.12L2187.8 413.78L2150.78 413.78ZM2224.01 327.25C2248.45 327.25 2261.34 305.78 2261.34 276.32C2261.34 247.07 2248.65 226.11 2224.01 226.11C2200.18 226.11 2187.09 245.84 2187.09 276.32C2187.09 306.8 2200.38 327.25 2224.01 327.25Z" />
		<path id="Layer" class="shp2" d="M2409.12 197.78L2378.13 197.78L2378.13 160.14L2341.11 160.14L2341.11 197.78L2318.81 197.78L2318.81 226.41L2341.11 226.41L2341.11 313.75C2340.9 343.31 2362.38 357.83 2390.2 357.01C2400.73 356.71 2407.99 354.66 2411.98 353.33L2405.74 324.39C2403.7 324.9 2399.51 325.82 2394.9 325.82C2385.6 325.82 2378.13 322.55 2378.13 307.62L2378.13 226.41L2409.12 226.41L2409.12 197.78L2409.12 197.78Z" />
		<path id="Layer" class="shp2" d="M2506.99 357.94C2546.47 357.94 2571.63 334.51 2574.29 301.17L2538.9 301.17C2535.73 318.05 2523.56 327.76 2507.3 327.76C2484.18 327.76 2469.25 308.44 2469.25 276.32C2469.25 244.62 2484.49 225.59 2507.3 225.59C2525.09 225.59 2536.04 237.05 2538.9 252.19L2574.29 252.19C2571.73 218.13 2545.14 195.73 2506.79 195.73C2460.76 195.73 2431.72 228.97 2431.72 276.94C2431.72 324.49 2460.05 357.94 2506.99 357.94Z" />
		<path id="Layer" class="shp2" d="M2641.79 262.82C2641.79 240.12 2655.9 227.03 2675.74 227.03C2695.18 227.03 2706.63 239.4 2706.63 260.57L2706.63 354.87L2743.65 354.87L2743.65 254.84C2743.65 216.9 2722.18 195.73 2689.55 195.73C2665.42 195.73 2650.07 206.67 2642.81 224.47L2640.97 224.47L2640.97 145.41L2604.77 145.41L2604.77 354.87L2641.79 354.87L2641.79 262.82L2641.79 262.82Z" />
		<path id="Layer" fill-rule="evenodd" class="shp2" d="M2826.49 358.04C2796.52 358.04 2773.92 341.67 2773.92 310.79C2773.92 275.4 2803.07 266.3 2833.55 263.03C2861.26 260.06 2872.41 259.55 2872.41 248.91L2872.41 248.3C2872.41 232.86 2863 224.06 2845.82 224.06C2827.72 224.06 2817.29 233.26 2813.6 244L2779.04 239.09C2787.22 210.46 2812.58 195.73 2845.61 195.73C2875.58 195.73 2909.43 208.21 2909.43 249.73L2909.43 354.87L2873.84 354.87L2873.84 333.29L2872.61 333.29C2865.86 346.48 2851.14 358.04 2826.49 358.04ZM2872.51 298.51L2872.51 280C2867.71 283.89 2848.27 286.34 2838.56 287.67C2821.99 290.03 2809.61 295.96 2809.61 310.17C2809.61 323.78 2820.66 330.83 2836.1 330.83C2858.4 330.83 2872.51 316 2872.51 298.51Z" />
	</g>
</svg>